<?xml version="1.0" encoding="utf-8"?>
<!-- Generator: Adobe Illustrator 26.0.0, SVG Export Plug-In . SVG Version: 6.00 Build 0)  -->
<svg version="1.1" id="Layer_1" xmlns="http://www.w3.org/2000/svg" xmlns:xlink="http://www.w3.org/1999/xlink" x="0px" y="0px"
	 viewBox="0 0 64 64" style="enable-background:new 0 0 64 64;" xml:space="preserve">
<style type="text/css">
	.st0{fill:#262F3E;}
	.st1{fill-rule:evenodd;clip-rule:evenodd;fill:#F8991D;}
</style>
<g>
	<path class="st0" d="M18.47,26.93c0,0.76,0.08,1.38,0.23,1.84c0.16,0.45,0.37,0.95,0.66,1.48c0.1,0.16,0.14,0.33,0.14,0.47
		c0,0.21-0.12,0.41-0.39,0.62l-1.3,0.87c-0.19,0.12-0.37,0.19-0.54,0.19c-0.21,0-0.41-0.1-0.62-0.29c-0.29-0.31-0.54-0.64-0.74-0.97
		c-0.21-0.35-0.41-0.74-0.64-1.22c-1.61,1.9-3.63,2.85-6.06,2.85c-1.73,0-3.11-0.49-4.12-1.48c-1.01-0.99-1.53-2.31-1.53-3.96
		c0-1.75,0.62-3.18,1.88-4.25s2.93-1.61,5.05-1.61c0.7,0,1.42,0.06,2.19,0.16c0.76,0.1,1.55,0.27,2.37,0.45v-1.51
		c0-1.57-0.33-2.66-0.97-3.3c-0.66-0.64-1.77-0.95-3.36-0.95c-0.72,0-1.46,0.08-2.23,0.27s-1.51,0.41-2.23,0.7
		c-0.33,0.14-0.58,0.23-0.72,0.27s-0.25,0.06-0.33,0.06c-0.29,0-0.43-0.21-0.43-0.64v-1.01c0-0.33,0.04-0.58,0.14-0.72
		c0.1-0.14,0.29-0.29,0.58-0.43c0.72-0.37,1.59-0.68,2.6-0.93c1.01-0.27,2.08-0.39,3.22-0.39c2.45,0,4.25,0.56,5.4,1.67
		c1.13,1.11,1.71,2.8,1.71,5.07v6.68H18.47z M10.1,30.06c0.68,0,1.38-0.12,2.12-0.37c0.74-0.25,1.4-0.7,1.96-1.32
		c0.33-0.39,0.58-0.82,0.7-1.32c0.12-0.49,0.21-1.09,0.21-1.79v-0.87c-0.6-0.14-1.24-0.27-1.9-0.35c-0.66-0.08-1.3-0.12-1.94-0.12
		c-1.38,0-2.39,0.27-3.07,0.82c-0.68,0.56-1.01,1.34-1.01,2.37c0,0.97,0.25,1.69,0.76,2.19C8.43,29.81,9.15,30.06,10.1,30.06z
		 M26.66,32.29c-0.37,0-0.62-0.06-0.78-0.21c-0.16-0.12-0.31-0.41-0.43-0.8L20.6,15.34c-0.12-0.41-0.19-0.68-0.19-0.82
		c0-0.33,0.16-0.52,0.49-0.52h2.02c0.39,0,0.66,0.06,0.8,0.21c0.16,0.12,0.29,0.41,0.41,0.8l3.46,13.65l3.22-13.65
		c0.1-0.41,0.23-0.68,0.39-0.8c0.16-0.12,0.45-0.21,0.82-0.21h1.65c0.39,0,0.66,0.06,0.82,0.21c0.16,0.12,0.31,0.41,0.39,0.8
		l3.26,13.82l3.57-13.82c0.12-0.41,0.27-0.68,0.41-0.8c0.16-0.12,0.43-0.21,0.8-0.21h1.92c0.33,0,0.52,0.16,0.52,0.52
		c0,0.1-0.02,0.21-0.04,0.33c-0.02,0.12-0.06,0.29-0.14,0.52L40.23,31.3c-0.12,0.41-0.27,0.68-0.43,0.8
		c-0.16,0.12-0.43,0.21-0.78,0.21h-1.77c-0.39,0-0.66-0.06-0.82-0.21c-0.16-0.14-0.31-0.41-0.39-0.82l-3.2-13.3l-3.18,13.28
		c-0.1,0.41-0.23,0.68-0.39,0.82c-0.16,0.14-0.45,0.21-0.82,0.21H26.66z M53.16,32.85c-1.07,0-2.14-0.12-3.18-0.37
		c-1.03-0.25-1.84-0.52-2.37-0.82c-0.33-0.19-0.56-0.39-0.64-0.58c-0.08-0.19-0.12-0.39-0.12-0.58v-1.05c0-0.43,0.16-0.64,0.47-0.64
		c0.12,0,0.25,0.02,0.37,0.06c0.12,0.04,0.31,0.12,0.52,0.21c0.7,0.31,1.46,0.56,2.27,0.72c0.82,0.16,1.63,0.25,2.45,0.25
		c1.3,0,2.31-0.23,3.01-0.68c0.7-0.45,1.07-1.11,1.07-1.96c0-0.58-0.19-1.05-0.56-1.44c-0.37-0.39-1.07-0.74-2.08-1.07l-2.99-0.93
		c-1.51-0.47-2.62-1.18-3.3-2.1c-0.68-0.91-1.03-1.92-1.03-2.99c0-0.87,0.19-1.63,0.56-2.29c0.37-0.66,0.87-1.24,1.48-1.69
		c0.62-0.47,1.32-0.82,2.14-1.07c0.82-0.25,1.69-0.35,2.6-0.35c0.45,0,0.93,0.02,1.38,0.08c0.47,0.06,0.91,0.14,1.34,0.23
		c0.41,0.1,0.8,0.21,1.18,0.33c0.37,0.12,0.66,0.25,0.87,0.37c0.29,0.16,0.49,0.33,0.62,0.52c0.12,0.16,0.19,0.39,0.19,0.68v0.97
		c0,0.43-0.16,0.66-0.47,0.66c-0.16,0-0.43-0.08-0.78-0.25c-1.18-0.54-2.5-0.8-3.96-0.8c-1.18,0-2.1,0.19-2.74,0.58
		c-0.64,0.39-0.97,0.99-0.97,1.84c0,0.58,0.21,1.07,0.62,1.46c0.41,0.39,1.18,0.78,2.27,1.13l2.93,0.93
		c1.48,0.47,2.56,1.13,3.2,1.98s0.95,1.81,0.95,2.89c0,0.89-0.19,1.69-0.54,2.39c-0.37,0.7-0.87,1.32-1.51,1.81
		c-0.64,0.52-1.4,0.89-2.29,1.15C55.18,32.7,54.21,32.85,53.16,32.85z"/>
	<g>
		<path class="st1" d="M57.05,42.87c-6.78,5.01-16.64,7.67-25.12,7.67c-11.88,0-22.58-4.39-30.66-11.69
			c-0.64-0.58-0.06-1.36,0.7-0.91c8.74,5.07,19.53,8.15,30.68,8.15c7.53,0,15.8-1.57,23.4-4.78C57.2,40.78,58.17,42.04,57.05,42.87z
			"/>
		<path class="st1" d="M59.88,39.65c-0.87-1.11-5.73-0.54-7.94-0.27c-0.66,0.08-0.76-0.49-0.16-0.93
			c3.88-2.72,10.25-1.94,10.99-1.03c0.74,0.93-0.21,7.3-3.84,10.35c-0.56,0.47-1.09,0.23-0.85-0.39
			C58.91,45.34,60.74,40.74,59.88,39.65z"/>
	</g>
</g>
</svg>
