<?xml version="1.0" encoding="utf-8"?>
<!-- Generator: Adobe Illustrator 26.0.0, SVG Export Plug-In . SVG Version: 6.00 Build 0)  -->
<svg version="1.1" id="Layer_1" xmlns="http://www.w3.org/2000/svg" xmlns:xlink="http://www.w3.org/1999/xlink" x="0px" y="0px"
	 viewBox="0 0 64 64" style="enable-background:new 0 0 64 64;" xml:space="preserve">
<style type="text/css">
	.st0{fill:#6EB345;}
</style>
<g>
	<path class="st0" d="M56.9,20.6c-1-0.9-2-1.6-2.3-3.2c-0.6-3.7-1.9-7.2-4.8-10c-2.4-2.4-5.3-3.4-8.4-3.7c-3.1-0.4-6,0.5-8.9,1.5
		c-0.4,0.1-0.8,0.3-1.2,0.1c-1.3-0.6-2.7-0.9-4.1-1.2C21,2.7,15.5,4.5,11.9,9.7c-1.5,2.1-2.4,4.6-2.7,7.2c-0.2,1.9-1.3,2.9-2.7,4
		C6.3,21,6,21.2,5.8,21.4c-2.1,2.7-4.2,5.3-4.5,9C0.8,35.8,2.8,40,6.7,43.5c1,0.9,2.2,1.6,2.4,3.1c0.2,2.4,1.2,4.6,2.2,6.8
		c1.1,2.3,2.9,4.1,5,5.3c3.5,2,7.3,2.5,11.1,1.3c2.9-0.9,5.7-1.4,8.5,0c0.2,0.1,0.5,0.1,0.8,0.2c6.3,1.3,12.2-0.8,15.5-6.5
		c1.3-2.3,2.1-4.9,2.5-7.5c0.1-0.5,0.3-0.8,0.6-1.1c1.5-1.5,3.2-2.7,4.4-4.5c1.8-2.6,2.9-5.2,2.8-7.7C62.7,27.3,60.4,23.7,56.9,20.6
		z M45.6,6.2c4.5,2.4,7,6.3,7.5,11.5c-1.4-0.8-2.7-1.5-4-2.1c-1-0.5-2.1-0.9-3.2-1.1C44,14,42.4,13.2,41,11.8
		c-2.1-2.1-4.5-3.9-7.3-5.3C36.2,4.9,42,4.2,45.6,6.2z M42.9,15.7c2.1,2.6,4.1,5.4,5.7,8.4c1.3,2.5,2.3,5.1,3.3,7.7
		c0.2,0.4,0,0.8-0.2,1.2c-1.4,3.6-2.9,7-5,10.3c-1.2,1.9-2.9,3.5-4,5.5c-0.4,0.7-1.1,0.8-1.9,1c-2.9,0.5-5.9,0.9-9.1,0.9
		c-3,0.1-6.2-0.5-9.4-1c-0.4-0.1-0.7-0.3-0.9-0.6c-0.7-1.2-1.7-2.1-2.5-3.2c-1-1.4-1.9-2.8-2.8-4.3c-1.7-2.7-2.8-5.7-4-8.6
		c-0.2-0.5-0.2-1,0-1.5c0.4-1,0.8-2,1.2-3c1.3-2.7,2.6-5.4,4.2-7.9c1.2-1.9,2.9-3.3,3.9-5.3c0.2-0.3,0.4-0.6,0.9-0.6
		c4.8-0.8,9.6-1.3,14.4-0.7c1.7,0.2,3.3,0.5,5,0.7C42.3,14.7,42.5,15.3,42.9,15.7z M32.3,7.3c2.1,0.8,6,3.8,7.6,5.4
		c-2.7-0.4-5.3-0.7-8-0.7c-2.7,0-5.3,0.3-7.9,0.7c0-0.5,0.3-0.7,0.6-0.9c2.2-1.5,4.1-3.4,6.6-4.4C31.6,7.3,31.9,7.2,32.3,7.3z
		 M30.1,6.4c-1.8,1.1-3.5,2-5,3.3c-0.8,0.7-1.8,1.3-2.5,2.1c-1.2,1.5-2.9,2.2-4.7,2.6c-2.5,0.5-4.7,1.8-6.9,3.1
		c-0.1,0.1-0.3,0.1-0.4,0.2C11.3,8.7,19.8,2,30.1,6.4z M9.7,34.8c-0.8,2.7-1,5.6-1,8.5c-7.2-5.6-9-14.8,0-22.5
		c-0.1,3.1,0.1,5.9,0.9,8.6C10.2,31.3,10.2,33,9.7,34.8z M11.2,18.9c1.5-1.1,3.3-1.6,5-2.4c0.8-0.4,1.7-0.7,2.7-0.9
		c-3.2,4.1-5.6,8.6-7.8,13.6c-0.7-2.9-0.9-5.6-0.9-8.3C10.2,20,10.5,19.5,11.2,18.9z M10.3,44.1c-0.1-2.6,0-5.2,0.6-7.8
		c0.1-0.2,0-0.5,0.2-0.6c0.4-0.1,0.4,0.3,0.5,0.5c1,2.1,1.9,4.3,3.1,6.3c1.2,2.1,2.8,4,4.3,6.2c-0.9,0-1.6-0.4-2.2-0.7
		c-2-0.9-4.2-1.5-6-3C10.5,44.7,10.3,44.5,10.3,44.1z M10.7,46.6c1.3,0.7,2.5,1.3,3.8,2c0.8,0.5,1.7,0.9,2.6,1
		c2.7,0.3,4.9,1.8,6.7,3.7c1.6,1.7,3.6,2.8,5.5,4c0.3,0.2,0.5,0.3,0.9,0.6C20.1,61.8,11.8,56.5,10.7,46.6z M31.4,56.8
		c-1.5-0.9-3.2-1.5-4.4-2.8c-0.5-0.5-1.1-1-1.8-1.3c-0.5-0.3-1-0.6-1.1-1.3c5.3,0.9,10.5,0.9,15.9,0c-0.1,0.2-0.2,0.4-0.3,0.5
		c-2.3,1.8-4.5,3.8-7.3,5C32,57,31.7,57.1,31.4,56.8z M33.7,57.8c1.2-0.7,2.2-1.3,3.2-2c1.5-1,2.9-2.2,4.2-3.4c1.2-1.2,2.4-2,4-2.3
		c2.9-0.5,5.4-2,7.9-3.4C52.3,56.4,43.4,61.9,33.7,57.8z M53.5,43.8c0,0.5-0.2,0.9-0.6,1.2c-2.5,1.7-5.3,2.6-8.1,3.7
		c3.3-4.2,5.8-8.8,7.9-13.8C53.3,37.9,53.6,40.9,53.5,43.8z M52.7,29.5c-2.1-5.1-4.6-9.7-8.2-14.1c1.8,0.4,3.2,1.1,4.5,1.7
		c1.1,0.5,2.2,0.9,3.2,1.5c0.9,0.6,1.3,1.2,1.4,2.4C53.6,23.8,53.2,26.5,52.7,29.5z M60.7,35.7c-1,3-2.8,5.3-5.1,7.4
		c-0.1,0.1-0.2,0.1-0.5,0.3c0-3-0.2-5.8-1-8.4c-0.5-1.9-0.6-3.6,0-5.5c0.8-2.5,1-5.1,1-7.8c0-0.2-0.1-0.5,0.1-0.6
		c0.2-0.1,0.4,0,0.5,0.2c2.5,2.5,4.6,5.2,5.3,8.8C61.4,31.9,61.3,33.8,60.7,35.7z"/>
	<path class="st0" d="M31.8,25c-3.8,0-7.1,3.4-7.1,7.2c0,3.8,3.4,7.2,7.1,7.2c3.9,0,7.2-3.4,7.2-7.2C39,28.3,35.6,24.9,31.8,25z"/>
</g>
</svg>
