<?xml version="1.0" encoding="utf-8"?>
<!-- Generator: Adobe Illustrator 26.0.0, SVG Export Plug-In . SVG Version: 6.00 Build 0)  -->
<svg version="1.1" id="Layer_1" xmlns="http://www.w3.org/2000/svg" xmlns:xlink="http://www.w3.org/1999/xlink" x="0px" y="0px"
	 viewBox="0 0 64 64" style="enable-background:new 0 0 64 64;" xml:space="preserve">
<style type="text/css">
	.st0{fill-rule:evenodd;clip-rule:evenodd;fill:#E25544;}
	.st1{fill-rule:evenodd;clip-rule:evenodd;fill:#7B1F16;}
	.st2{fill-rule:evenodd;clip-rule:evenodd;fill:#59180F;}
</style>
<path class="st0" d="M53.18,11.72L42.46,32.13l10.72,20.41l4.39-2.45V14.18L53.18,11.72z"/>
<path class="st1" d="M53.18,11.72l-21.44,2.45L20.83,32.13l10.91,17.95l21.44,2.45V11.72z"/>
<path class="st2" d="M9.91,11.72l-3.49,1.55v37.72l3.49,1.55l21.83-20.41L9.91,11.72z"/>
<path class="st0" d="M9.87,11.68l21.9,6.09v29.28l-21.9,5.51V11.68z"/>
<path class="st2" d="M31.78,20.98l-9.3-1.49l9.3-10.56l9.28,10.56L31.78,20.98z"/>
<path class="st2" d="M41.06,19.49L31.77,21l-9.29-1.52V8.92"/>
<path class="st2" d="M31.78,43.14l-9.3,1.72l9.3,9.07l9.28-9.07L31.78,43.14z"/>
<path class="st1" d="M31.74,1l-9.3,4.91v13.56l9.33-2.63L31.74,1z"/>
<path class="st1" d="M31.77,24.31l-9.29,1.01v13.54l9.29,1.06V24.31z"/>
<path class="st1" d="M31.77,47.16l-9.29-2.33v13.31L31.77,63V47.16z"/>
<path class="st0" d="M41.06,44.83l-9.29,2.33V63l9.29-4.86V44.83z"/>
<path class="st0" d="M31.77,24.31l9.29,1.01v13.54l-9.29,1.06V24.31z"/>
<path class="st0" d="M31.74,1l9.3,4.91v13.56l-9.3-2.58V1z"/>
</svg>
