<?xml version="1.0" encoding="utf-8"?>
<!-- Generator: Adobe Illustrator 26.0.0, SVG Export Plug-In . SVG Version: 6.00 Build 0)  -->
<svg version="1.1" id="Layer_1" xmlns="http://www.w3.org/2000/svg" xmlns:xlink="http://www.w3.org/1999/xlink" x="0px" y="0px"
	 viewBox="0 0 64 64" style="enable-background:new 0 0 64 64;" xml:space="preserve">
<style type="text/css">
	.st0{fill:#131313;}
	.st1{fill:#7B7B7B;}
	.st2{fill:#7F7F7F;}
	.st3{fill:#818181;}
</style>
<g>
	<path class="st0" d="M28.3,25.9c-0.8-2-0.8-1.9-3-2c-0.6,0-0.9,0.2-1.1,0.8c-1.8,4.5-3.7,8.9-5.5,13.3c-0.1,0.2-0.3,0.5-0.2,0.8
		c0.2,0,0.5,0,0.7,0c0.8,0,1.7,0.3,2.3-0.1c0.5-0.4,0.7-1.4,0.9-2.1c1.2-3,2.3-6,3.6-9.2c1.2,3.2,2.4,6.2,3.6,9.3
		c0.8,2.2,0.8,2.1,3.2,2.2c0.7,0,0.8-0.1,0.5-0.8C31.6,34.1,30,30,28.3,25.9z"/>
	<path class="st0" d="M16.8,24.1c-0.6,0-0.9,0.1-1.2,0.7c-1.5,3.5-3.1,7.1-4.7,10.8c-0.2-0.4-0.3-0.6-0.4-0.8
		C9.3,31.9,8,29,6.8,26.2c-0.9-2.1-0.9-2.1-3.2-2.1c-0.7,0-0.7,0.2-0.4,0.8c1.8,4,3.7,7.9,5.3,11.9c0.7,1.7,1.6,2.5,3.4,2.2
		c0.5-0.1,0.8-0.2,1-0.7c1.8-4,3.6-8,5.4-12c0.3-0.6,0.7-1.3,0.8-2.1C18.2,24.1,17.5,24.2,16.8,24.1z"/>
	<path class="st0" d="M47,24.1c-0.6-0.1-0.8,0.2-1.1,0.7c-1.3,3.1-2.7,6.3-4.1,9.4c-0.2,0.5-0.3,0.9-0.7,1.3
		c-0.1-0.3-0.3-0.6-0.4-0.9c-1.5-3.3-2.9-6.6-4.4-9.9c-0.1-0.3-0.2-0.6-0.7-0.6c-0.9,0-1.7,0-2.7,0c0.1,0.4,0.2,0.7,0.4,0.9
		c1.8,3.9,3.6,7.8,5.2,11.8c0.7,1.6,1.5,2.4,3.2,2.1c0.6-0.1,0.9-0.2,1.2-0.8c1.7-3.8,3.4-7.6,5.1-11.4c0.4-0.8,0.7-1.6,1.1-2.6
		C48.4,24.1,47.7,24.1,47,24.1z"/>
	<path class="st0" d="M59.9,26c-0.1-0.7,0.4-1.5-0.3-2c-0.1-0.1-0.2,0-0.3,0c-0.7,0-1.5,0-2.2,0c-2.8,0.1-5.1,2-5.7,4.8
		c-0.4,1.8-0.1,3.5-0.2,5c0,1.2,0,2.2,0,3.1c0,2.1,0,2,2.1,2c0.6,0,0.8-0.2,0.7-0.8c0-2.7,0-5.3,0-8c0-2.2,1.5-3.6,3.6-3.6
		c0.5,0,1.1,0,1.7,0C59.8,26.6,60,26.4,59.9,26z"/>
	<path class="st1" d="M59.5,35.7c-0.9,0-1.5,0.6-1.5,1.6c0,1,0.5,1.6,1.5,1.6c1,0,1.5-0.5,1.5-1.5C61,36.3,60.4,35.8,59.5,35.7z
		 M59.5,38.2c-0.6,0-0.7-0.4-0.7-0.8c0-0.6,0.2-1,0.7-1c0.6,0,0.7,0.5,0.7,1C60.1,37.8,60,38.2,59.5,38.2z"/>
	<path class="st2" d="M57,35.8c-0.2,0-0.4,0.1-0.4,0.4c0,0.4,0,0.8,0,1.2c0,0.4,0,0.7,0,1.1c0,0.3,0.1,0.4,0.4,0.4
		c0.2,0,0.4-0.1,0.4-0.3c0-0.8,0-1.5,0-2.3C57.4,36,57.2,35.8,57,35.8z"/>
	<path class="st3" d="M55.3,38c-0.3,0-0.4,0.2-0.4,0.4c0,0.3,0.2,0.4,0.4,0.4c0.3,0,0.4-0.2,0.4-0.4C55.8,38.1,55.6,38,55.3,38z"/>
</g>
</svg>
