<?xml version="1.0" encoding="utf-8"?>
<!-- Generator: Adobe Illustrator 26.0.0, SVG Export Plug-In . SVG Version: 6.00 Build 0)  -->
<svg version="1.1" id="Layer_2_00000005989132145264915160000000413990201352325015_"
	 xmlns="http://www.w3.org/2000/svg" xmlns:xlink="http://www.w3.org/1999/xlink" x="0px" y="0px" viewBox="0 0 64 64"
	 style="enable-background:new 0 0 64 64;" xml:space="preserve">
<style type="text/css">
	.st0{fill:none;}
	.st1{fill:#F49224;}
	.st2{fill:#2CB0E5;}
</style>
<g>
	<path class="st0" d="M41.5,21c1,3.1,2,6.2,3,9.3c0.1,0.2,0.2,0.5,0.3,0.8c0,0,0,0,0,0c-0.2-0.4-0.3-0.6-0.3-0.8
		C43.5,27.2,42.5,24.1,41.5,21c-0.1-0.5-0.3-0.7-0.9-0.7c0,0,0,0,0,0C41.1,20.3,41.3,20.5,41.5,21z"/>
	<path class="st0" d="M34.3,20.4C34.3,20.4,34.3,20.4,34.3,20.4c-1.2,0-2.5,0-3.7,0c-0.3,0-0.6,0-0.7,0.2c0.2-0.1,0.4-0.2,0.7-0.1
		C31.8,20.4,33.1,20.4,34.3,20.4z"/>
	<path class="st0" d="M8.1,20.4c0.8,0,1.1,0.3,1.3,1c0.9,3.1,1.8,6.1,2.7,9.2c0.1,0.2,0.1,0.4,0.4,0.6c0,0,0,0,0,0
		c-0.2-0.2-0.3-0.4-0.4-0.6c-0.9-3-1.8-6.1-2.7-9.2C9.2,20.6,8.9,20.3,8.1,20.4c-1.9,0-3.8,0-5.7,0c-0.4,0-0.7,0-0.8,0.1
		c0.1-0.1,0.4-0.1,0.8-0.1C4.2,20.4,6.2,20.4,8.1,20.4z"/>
	<path class="st0" d="M22.5,20.4c0.8,0,1.1,0.3,1.3,1c0.7,2.6,1.5,5.2,2.2,7.8c0.2,0.6,0.4,1.2,0.6,2.1c0,0,0,0,0-0.1
		c-0.3-0.9-0.4-1.4-0.6-2c-0.7-2.6-1.5-5.2-2.2-7.8C23.6,20.6,23.3,20.3,22.5,20.4c-2,0-3.9,0-5.9,0c-0.4,0-0.6,0.1-0.8,0.2
		c0.2-0.1,0.4-0.2,0.8-0.2C18.5,20.4,20.5,20.4,22.5,20.4z"/>
	<path class="st0" d="M16.6,41.2c-0.2,0.7-0.3,1.2-0.5,1.5C16.3,42.4,16.4,41.9,16.6,41.2c0.9-2.9,1.8-5.7,2.7-8.6c0,0,0,0,0,0
		C18.5,35.5,17.5,38.3,16.6,41.2z"/>
	<path class="st0" d="M35.7,39.4c-0.3,1-0.7,2-0.9,3.1c-0.1,0.3-0.2,0.4-0.3,0.6c0.2-0.1,0.3-0.3,0.3-0.6
		C35,41.4,35.4,40.4,35.7,39.4c0.7-2.3,1.4-4.5,2.1-6.9c0,0,0,0,0,0C37,34.9,36.3,37.1,35.7,39.4z"/>
	<path class="st0" d="M50.2,38.2c-0.4,1.4-0.9,2.8-1.2,4.2c0,0.2-0.1,0.3-0.2,0.4c0.1-0.1,0.2-0.3,0.2-0.5
		C49.3,40.9,49.8,39.5,50.2,38.2c0.6-1.9,1.1-3.7,1.7-5.6c0,0,0,0,0,0C51.3,34.4,50.7,36.3,50.2,38.2z"/>
	<path class="st0" d="M54.5,20.3c-1.2,0-2.5,0-3.7,0c0,0,0,0,0,0C52.1,20.4,53.3,20.4,54.5,20.3z"/>
	<path class="st1" d="M50.8,20.4c-2.7,0-2.6,0-3.3,2.7c-0.8,2.7-1.8,5.3-2.7,8.1c0,0,0,0,0,0c0,0,0,0,0,0c-0.2-0.4-0.3-0.6-0.3-0.8
		c-1-3.1-2-6.2-3-9.3c-0.2-0.5-0.4-0.7-0.9-0.7c-2.1,0-4.2,0-6.2,0c0,0,0,0,0,0c0,0,0,0,0,0c0,0,0,0,0,0c-2.4,7.2-4.7,14.4-7.1,21.6
		c-0.1,0.4-0.2,0.7-0.3,1.1c0,0,0,0,0,0c2.3,0,4.6,0,6.9,0c0.3,0,0.5,0,0.6-0.1c0.1-0.1,0.2-0.3,0.3-0.6c0.2-1,0.6-2,0.9-3.1
		c0.7-2.3,1.3-4.5,2.1-7c0,0,0,0,0,0c0,0,0-0.1,0-0.1c0.2,0.6,0.4,1,0.5,1.4c0.8,2.7,1.5,5.5,2.3,8.2c0.2,0.8,0.5,1.2,1.5,1.2
		c1.9-0.1,3.9,0,5.8,0c0.5,0,0.8-0.1,1-0.4c0.1-0.1,0.1-0.2,0.2-0.4c0.3-1.4,0.8-2.8,1.2-4.2c0.5-1.9,1.1-3.7,1.7-5.6c0,0,0,0,0,0
		c0,0,0,0,0,0c0.3,0.1,0.3,0.2,0.3,0.4c0.9,3.1,1.8,6.2,2.7,9.2c0.1,0.5,0.2,1,1,1c2.3,0,4.7,0,7,0c0-0.2,0-0.3,0-0.5
		c-0.3-0.3-0.4-0.7-0.5-1.1C60.3,34.8,58,28,55.8,21.1c-0.2-0.6-0.4-0.8-1.1-0.8c-0.1,0-0.2,0-0.2,0C53.3,20.4,52.1,20.4,50.8,20.4z
		"/>
	<path class="st1" d="M40.6,20.4C40.6,20.4,40.6,20.3,40.6,20.4c-2.1,0-4.2,0-6.3,0c0,0,0,0,0,0C36.4,20.4,38.5,20.4,40.6,20.4z"/>
	<path class="st1" d="M47.5,23c0.7-2.6,0.6-2.7,3.3-2.7c0,0,0,0,0,0C48.1,20.3,48.2,20.4,47.5,23c-0.8,2.7-1.8,5.3-2.7,8.1
		c0,0,0,0,0,0C45.8,28.3,46.8,25.7,47.5,23z"/>
	<path class="st1" d="M47.8,43.2c-2,0-3.9-0.1-5.8,0c-0.9,0-1.3-0.3-1.5-1.2c-0.7-2.8-1.5-5.5-2.3-8.2c-0.1-0.4-0.3-0.8-0.5-1.4
		c0,0,0,0.1,0,0.1c0.2,0.6,0.4,0.9,0.5,1.4c0.8,2.7,1.5,5.5,2.3,8.2c0.2,0.8,0.6,1.2,1.5,1.2C43.9,43.1,45.8,43.2,47.8,43.2
		c0.4,0,0.8,0,1-0.4C48.6,43.1,48.3,43.2,47.8,43.2z"/>
	<path class="st1" d="M26.9,43.1C26.9,43.1,26.9,43.1,26.9,43.1C26.9,43.1,26.9,43.1,26.9,43.1C26.9,43.2,26.9,43.2,26.9,43.1
		c2.3,0,4.6,0,6.9,0.1c0.3,0,0.5,0,0.7-0.2c-0.2,0.1-0.4,0.1-0.6,0.1C31.5,43.1,29.2,43.1,26.9,43.1z"/>
	<path class="st1" d="M55,42.1c-0.9-3.1-1.8-6.2-2.7-9.2c0-0.1,0-0.3-0.3-0.4c0,0,0,0,0,0c0.3,0.1,0.3,0.2,0.3,0.4
		C53.1,36,54,39.1,55,42.1c0.1,0.5,0.2,1.1,1,1.1c2.4-0.1,4.7,0,7-0.1c-2.3,0-4.7,0-7,0C55.2,43.2,55.1,42.6,55,42.1z"/>
	<path class="st1" d="M54.5,20.3c0.1,0,0.2,0,0.2,0c0,0,0,0,0,0C54.7,20.3,54.6,20.3,54.5,20.3z"/>
	<path class="st2" d="M19.8,33.2c1,3.1,2,6.1,3,9.2c0.2,0.6,0.4,0.9,1.1,0.8c1-0.1,2,0,3.1,0c0.1-0.4,0.2-0.7,0.3-1.1
		c2.4-7.2,4.7-14.4,7.1-21.6c0,0,0,0,0,0c-1.2,0-2.5,0-3.8,0c-0.3,0-0.5,0-0.7,0.1c-0.2,0.1-0.3,0.3-0.4,0.6
		c-0.4,1.5-0.9,3.1-1.3,4.6c-0.5,1.7-1,3.4-1.6,5.4c0,0,0,0,0,0c0,0,0,0,0,0.1c-0.3-0.9-0.4-1.5-0.6-2.1c-0.7-2.6-1.5-5.2-2.2-7.8
		c-0.2-0.7-0.5-1-1.3-1c-2,0.1-4,0-6,0c-0.3,0-0.6,0-0.8,0.2c-0.2,0.1-0.3,0.4-0.4,0.7c-0.9,3.3-1.9,6.5-2.9,9.8c0,0,0,0,0,0
		c0,0,0,0,0,0c-0.3-0.2-0.3-0.4-0.4-0.6c-0.9-3.1-1.8-6.1-2.7-9.2c-0.2-0.7-0.5-1-1.3-1c-1.9,0.1-3.8,0.1-5.7,0
		c-0.4,0-0.6,0-0.8,0.1c-0.2,0.2-0.1,0.5,0.1,1c0.5,1.2,0.8,2.4,1.2,3.5c1.8,5.6,3.7,11.3,5.4,16.9c0.3,1,0.8,1.3,1.8,1.2
		c1.3-0.1,2.6,0,4,0c1.3,0,1.8,0,2.1-0.5c0.2-0.3,0.3-0.8,0.5-1.5c0.8-2.9,1.8-5.7,2.7-8.6c0,0,0,0,0,0c0,0,0,0,0,0
		C19.7,32.7,19.7,32.9,19.8,33.2z"/>
	<path class="st2" d="M28.1,25.8c0.4-1.5,0.9-3.1,1.3-4.6c0.1-0.3,0.2-0.5,0.4-0.6c-0.2,0.1-0.3,0.3-0.4,0.6
		C29,22.7,28.6,24.3,28.1,25.8c-0.5,1.7-1,3.4-1.6,5.4c0,0,0,0,0,0C27.1,29.2,27.6,27.5,28.1,25.8z"/>
	<path class="st2" d="M15.3,21.3c0.1-0.3,0.2-0.6,0.4-0.7C15.5,20.7,15.4,20.9,15.3,21.3c-0.9,3.3-1.9,6.5-2.9,9.8c0,0,0,0,0,0
		C13.4,27.8,14.4,24.5,15.3,21.3z"/>
	<path class="st2" d="M14,43.2c-1.3,0-2.6-0.1-4,0c-1,0.1-1.5-0.2-1.8-1.2C6.5,36.3,4.6,30.6,2.8,25c-0.4-1.2-0.7-2.4-1.2-3.5
		c-0.2-0.5-0.3-0.8-0.1-1c-0.2,0.2-0.2,0.5,0,1c0.5,1.2,0.8,2.4,1.2,3.5C4.6,30.7,6.5,36.3,8.2,42c0.3,1,0.8,1.3,1.8,1.2
		C11.3,43.1,12.7,43.2,14,43.2c1.3,0,1.8,0,2.1-0.5C15.8,43.1,15.3,43.2,14,43.2z"/>
	<path class="st2" d="M26.9,43.1c-1,0-2,0-3.1,0c-0.7,0-0.9-0.2-1.1-0.8c-1-3.1-2-6.1-3-9.2c-0.1-0.2-0.1-0.4-0.4-0.6c0,0,0,0,0,0
		c0.3,0.1,0.3,0.4,0.4,0.6c1,3.1,2,6.1,3,9.2c0.2,0.6,0.4,0.8,1.1,0.8C24.8,43.1,25.8,43.2,26.9,43.1C26.9,43.2,26.9,43.2,26.9,43.1
		C26.9,43.1,26.9,43.1,26.9,43.1z"/>
	<path class="st2" d="M27.2,42c-0.1,0.4-0.2,0.7-0.3,1.1c0,0,0,0,0,0C27,42.8,27.1,42.4,27.2,42c2.4-7.2,4.8-14.4,7.1-21.6
		c0,0,0,0,0,0c0,0,0,0,0,0C31.9,27.6,29.6,34.8,27.2,42z"/>
	<path class="st2" d="M26.9,43.1C26.9,43.1,26.9,43.1,26.9,43.1C26.9,43.1,26.9,43.1,26.9,43.1C26.9,43.2,26.9,43.2,26.9,43.1
		C26.9,43.2,26.9,43.2,26.9,43.1C26.9,43.1,26.9,43.1,26.9,43.1z"/>
</g>
</svg>
