<?xml version="1.0" encoding="utf-8"?>
<!-- Generator: Adobe Illustrator 26.0.0, SVG Export Plug-In . SVG Version: 6.00 Build 0)  -->
<svg version="1.1" xmlns="http://www.w3.org/2000/svg" xmlns:xlink="http://www.w3.org/1999/xlink" x="0px" y="0px"
	 viewBox="0 0 64 64" style="enable-background:new 0 0 64 64;" xml:space="preserve">
<style type="text/css">
	.st0{clip-path:url(#SVGID_00000066513480502916204930000001787891267145836944_);}
	.st1{fill:#DB544B;}
	.st2{fill:#FFFFFF;}
	.st3{fill:#E07161;}
	.st4{fill:#DD6154;}
	.st5{fill:#DE6658;}
	.st6{fill:#EAA08E;}
	.st7{fill:#EBA493;}
	.st8{fill:#EBA696;}
	.st9{fill:#24A162;}
</style>
<g id="Layer_1">
</g>
<g id="Layer_2">
	<g>
		<defs>
			<path id="SVGID_1_" d="M32,62.5L32,62.5C15.16,62.5,1.5,48.84,1.5,32v0C1.5,15.16,15.16,1.5,32,1.5h0
				c16.84,0,30.5,13.66,30.5,30.5v0C62.5,48.84,48.84,62.5,32,62.5z"/>
		</defs>
		<clipPath id="SVGID_00000005971639817281632560000003823773618299154049_">
			<use xlink:href="#SVGID_1_"  style="overflow:visible;"/>
		</clipPath>
		<g style="clip-path:url(#SVGID_00000005971639817281632560000003823773618299154049_);">
			<g>
				<path class="st1" d="M1.01,30.73c0-0.2,0-0.4,0-0.6c0.07-0.08,0.07-0.16,0-0.24c0-0.16,0-0.32,0-0.48
					c0.13-0.85,0.13-1.71,0.2-2.57c0.1-1.35,0.46-2.65,0.84-3.94c1.28-4.28,3.41-8.11,6.36-11.46c2.53-2.88,5.47-5.25,8.87-7.05
					c2.58-1.36,5.28-2.36,8.13-2.97C26.59,1.16,27.8,1.17,29,1.07c0.14-0.01,0.28,0.04,0.41-0.06c0.16,0,0.32,0,0.48,0
					c0.12,0.09,0.24,0.09,0.36,0c0.72,0,1.45,0,2.17,0c0.24,0.1,0.48,0.1,0.72,0c0.36,0,0.72,0,1.09,0
					c0.99,0.15,1.99,0.12,2.98,0.24c1.67,0.19,3.26,0.69,4.84,1.21c0.27,0.09,0.51,0.24,0.57,0.56c0.08,0.31,0.11,0.63,0.11,0.96
					c0,1.81,0.01,3.62,0,5.44c0,0.3,0.02,0.61-0.11,0.89c-0.15,0.23-0.39,0.27-0.63,0.28c-0.34,0.02-0.68,0.02-1.03,0.02
					c-6.22,0-12.44,0-18.66,0c-0.26,0-0.52,0-0.79,0.01c-0.38,0.02-0.57,0.2-0.66,0.58c-0.16,0.69-0.13,1.4-0.19,2.1
					c-0.15,1.78-0.27,3.57-0.42,5.35c-0.19,2.3-0.36,4.61-0.55,6.91c-0.13,1.56-0.25,3.13-0.37,4.69c-0.03,0.33,0.11,0.59,0.37,0.78
					c0.1,0.07,0.22,0.11,0.31,0.19c1.35,1.16,2.85,1.18,4.51,0.8c1.58-0.37,3.22-0.52,4.85-0.46c1.55,0.06,3.09,0.22,4.57,0.73
					c2.87,0.98,4.63,3.29,4.78,6.32c0.06,1.19-0.02,2.37-0.33,3.53c-0.64,2.41-2.23,3.97-4.52,4.82c-2.12,0.79-4.33,0.87-6.55,0.67
					c-2.87-0.25-5.63-0.93-8.26-2.14c-0.46-0.21-0.62-0.08-0.63,0.51c-0.01,1.63-0.01,3.26,0,4.89c-0.1,0.3-0.01,0.6-0.01,0.89
					c0,2.32,0,4.64,0,6.96c0,0.24,0,0.48-0.07,0.71c-0.23,0.43-0.56,0.29-0.88,0.14c-1.1-0.54-2.14-1.19-3.16-1.87
					c-2.2-1.48-4.13-3.27-5.89-5.23c-2.48-2.77-4.31-5.94-5.66-9.4c-0.61-1.56-1.05-3.17-1.41-4.8c-0.25-1.12-0.22-2.27-0.31-3.41
					c-0.01-0.14,0.04-0.28-0.06-0.4c0-0.16,0-0.32,0-0.48c0.07-0.08,0.07-0.16,0-0.24c0-0.2,0-0.4,0-0.6c0.1-0.24,0.1-0.48,0-0.72
					c0-0.32,0-0.64,0-0.97C1.11,31.21,1.11,30.97,1.01,30.73z"/>
				<path class="st2" d="M42.51,2.98c-1.93-0.81-3.96-1.24-6.01-1.61c-0.75-0.13-1.54-0.08-2.27-0.36c9.42,0,18.85,0,28.27-0.01
					C62.92,1,63,1.08,63,1.5c-0.01,20.34-0.01,40.67,0,61.01c0,0.41-0.08,0.49-0.49,0.49c-20.34-0.01-40.67-0.01-61.01,0
					C1.08,63,1,62.92,1,62.51c0.02-9.34,0.01-18.69,0.01-28.03c0.29,0.69,0.23,1.44,0.36,2.16c1.82,10.31,7.33,17.93,16.56,22.86
					c0.07,0.04,0.15,0.06,0.22,0.09c0.26-0.16,0.5-0.04,0.74,0.07c3.21,1.53,6.6,2.45,10.13,2.79c5.7,0.55,11.13-0.45,16.29-2.94
					c3.6-1.74,6.72-4.11,9.39-7.06c3.14-3.47,5.35-7.48,6.67-11.97c0.87-2.97,1.29-6.01,1.21-9.11c-0.11-3.94-0.9-7.74-2.45-11.37
					c-1.17-2.74-2.7-5.26-4.59-7.55c-2.36-2.85-5.14-5.19-8.35-7.04c-1.31-0.75-2.67-1.4-4.08-1.94
					C42.85,3.35,42.62,3.24,42.51,2.98z"/>
				<path class="st2" d="M29.4,1.01c-0.65,0.28-1.36,0.24-2.04,0.34C14.26,3.26,3.73,13.54,1.47,26.65
					c-0.14,0.79-0.22,1.59-0.33,2.39c-0.02,0.13,0.05,0.29-0.13,0.37c0-9.29,0-18.59-0.01-27.88C1,1.09,1.09,1,1.52,1
					C10.82,1.02,20.11,1.01,29.4,1.01z"/>
				<path class="st3" d="M33.15,1.01c-0.24,0.18-0.48,0.16-0.72,0C32.66,1.01,32.91,1.01,33.15,1.01z"/>
				<path class="st4" d="M1.01,30.73c0.17,0.24,0.16,0.48,0,0.72C1.01,31.21,1.01,30.97,1.01,30.73z"/>
				<path class="st5" d="M1.01,32.42c0.16,0.24,0.17,0.48,0,0.72C1.01,32.91,1.01,32.66,1.01,32.42z"/>
				<path class="st6" d="M30.25,1.01c-0.12,0.13-0.24,0.18-0.36,0C30.01,1.01,30.13,1.01,30.25,1.01z"/>
				<path class="st7" d="M1.01,29.89c0.14,0.08,0.12,0.16,0,0.24C1.01,30.05,1.01,29.97,1.01,29.89z"/>
				<path class="st8" d="M1.01,33.75c0.13,0.08,0.14,0.16,0,0.24C1.01,33.91,1.01,33.83,1.01,33.75z"/>
				<path class="st9" d="M42.51,2.98c1.74,0.48,3.33,1.29,4.86,2.21c8.24,4.92,13.34,12.08,15.02,21.54
					C65.27,43,54.65,58.69,38.5,62.16c-6.86,1.47-13.47,0.67-19.82-2.29c-0.18-0.08-0.35-0.19-0.53-0.29
					c0.01-2.91,0.01-5.82,0.02-8.73c0.25-0.21,0.51-0.08,0.74,0.03c2.62,1.21,5.39,1.66,8.25,1.84c2.74,0.18,5.43,0.03,8.08-0.66
					c2.35-0.61,4.48-1.66,6.23-3.41c1.86-1.86,2.92-4.11,3.4-6.67c0.48-2.56,0.44-5.09-0.36-7.57c-1.11-3.41-3.46-5.65-6.76-6.92
					c-1.55-0.6-3.17-0.85-4.83-0.97c-2.11-0.16-4.17,0.08-6.24,0.43c-0.08,0.01,0.02,0-0.06,0.01c-1.1,0.18-1.33-0.07-1.21-1.19
					c0.22-2.06,0.39-4.12,0.57-6.18c0.08-0.92,0.2-1.84,0.27-2.76c0.03-0.44,0.29-0.69,0.73-0.73c0.32-0.03,0.64-0.03,0.97-0.03
					c4.27,0,8.53,0,12.8,0c0.22,0,0.44,0.01,0.66,0c0.6-0.03,0.74-0.15,0.74-0.77c0.02-1.31,0-2.62,0.01-3.93
					c0-0.37,0.02-0.73,0.3-1.01C42.48,7.9,42.5,5.44,42.51,2.98z"/>
				<path class="st2" d="M42.47,10.36c0.01,1.59,0.03,3.17,0.04,4.76c0.01,1.27,0,1.27-1.24,1.27c-4.69,0-9.38,0.01-14.07-0.01
					c-0.49,0-0.65,0.14-0.69,0.63c-0.25,3.01-0.53,6.01-0.81,9.02c-0.08,0.83-0.09,0.82,0.76,0.67c3.44-0.63,6.87-0.78,10.28,0.16
					c5.01,1.38,8.21,5.26,8.63,10.41c0.26,3.2-0.14,6.27-1.77,9.09c-1.81,3.13-4.59,5.04-8.04,5.91
					c-5.23,1.32-10.44,1.11-15.56-0.62c-0.62-0.21-1.21-0.53-1.82-0.79c-0.01-1.93-0.02-3.86-0.04-5.79c0-0.38,0.16-0.32,0.4-0.19
					c2.2,1.18,4.57,1.85,7.03,2.24c2.46,0.4,4.92,0.5,7.36-0.15c3.46-0.93,5.35-3.3,5.53-6.87c0.05-1.05-0.01-2.09-0.29-3.11
					c-0.72-2.63-2.6-4.02-5.12-4.66c-2.43-0.62-4.9-0.58-7.37-0.21c-1.09,0.17-2.18,0.36-3.27,0.55c-0.27,0.05-0.5,0.02-0.74-0.12
					c-0.75-0.46-1.51-0.92-2.28-1.35c-0.32-0.17-0.39-0.39-0.37-0.73c0.22-2.75,0.44-5.49,0.65-8.24c0.26-3.35,0.53-6.7,0.79-10.05
					c0.03-0.36,0.11-0.72,0.08-1.08c-0.04-0.61,0.18-0.76,0.79-0.75C28.38,10.36,35.43,10.36,42.47,10.36z"/>
			</g>
		</g>
	</g>
</g>
</svg>
