<?xml version="1.0" encoding="utf-8"?>
<!-- Generator: Adobe Illustrator 26.0.0, SVG Export Plug-In . SVG Version: 6.00 Build 0)  -->
<svg version="1.1" id="Layer_2_00000041284813304308050090000001830769935672672142_"
	 xmlns="http://www.w3.org/2000/svg" xmlns:xlink="http://www.w3.org/1999/xlink" x="0px" y="0px" viewBox="0 0 64 64"
	 style="enable-background:new 0 0 64 64;" xml:space="preserve">
<style type="text/css">
	.st0{fill:#5359A7;}
	.st1{fill:#5362AD;}
	.st2{fill:#57C0E9;}
	.st3{fill:#5250A2;}
	.st4{fill:#60C9E6;}
	.st5{fill:#6DCCE0;}
	.st6{fill:#5399D2;}
	.st7{fill:#5253A3;}
	.st8{fill:#80D0D8;}
	.st9{fill:#5253A4;}
	.st10{fill:#53439B;}
	.st11{fill:#53449B;}
	.st12{fill:#4E82C3;}
	.st13{fill:#5360AB;}
	.st14{fill:#4974B9;}
	.st15{fill:#5361AC;}
	.st16{fill:#91D4CF;}
	.st17{fill:#5571B7;}
	.st18{fill:#5570B6;}
	.st19{fill:#54AADF;}
</style>
<g>
	<g>
		<path class="st0" d="M31.7,26.8c0,1.6,0.1,3.1,0,4.7c0,0.7,0.2,1,0.9,0.9c1.5,0,3,0,4.5,0C37,33.4,37.3,34,38,34.6
			c1.1,1,2.1,2,3.1,3.1c0.3,0.3,0.5,0.5,0.7,0.8c0.2,0.3,0.5,0.6,0.3,1c-0.2,0.4-0.6,0.2-0.9,0.2c-2.5,0-5,0-7.6,0
			c-1-0.8-1.9-1.7-2.7-2.7c-1.9-2.2-4-4.2-6.1-6.2c-0.1-0.1-0.3-0.3-0.3-0.5c0-2.7,0-5.4,0-8c0-0.3-0.2-0.7,0.2-0.9
			c0.4-0.2,0.7,0.1,1,0.4c1.3,1.3,2.6,2.5,3.7,3.9C30,26.5,30.6,27.2,31.7,26.8z"/>
		<path class="st1" d="M33.4,39.6c2.6,0,5.1,0,7.7,0c0.3,0,0.7,0.2,0.8-0.2c0.1-0.3-0.2-0.6-0.4-0.8c-1.4-1.4-2.8-2.8-4.2-4.2
			c-0.7-0.7-0.9-1.2-0.1-1.8c2.6,0,5.1,0,7.7-0.1c0.6,0,0.9,0.3,0.9,0.9c0,1.9,0,3.8,0,5.6c0,0.8-0.5,0.9-1.1,0.9
			c-2.1,0-4.3,0-6.4,0c-4.1,0-8.2,0-12.2,0c-0.4,0-0.8,0.1-1.2-0.2c0.3-0.3,0.7-0.3,1.1-0.3c2.1,0,4.2,0,6.3,0
			C32.7,39.3,33.1,39.3,33.4,39.6z"/>
		<path class="st1" d="M31.7,26.8c-0.7,0.8-1.2,0.6-1.8-0.1c-1.4-1.7-2.9-3.2-4.5-4.7c-0.2-0.2-0.3-0.5-0.6-0.4
			c-0.3,0.1-0.2,0.5-0.2,0.7c0,2.7,0,5.5,0,8.2c0.3,0.4,0.3,0.8,0.3,1.2c0,2.1,0,4.2,0,6.4c0,0.4,0,0.9-0.4,1.2
			c-0.3-0.3-0.2-0.7-0.2-1c0-6.2,0-12.3,0-18.5c0-1.4,0-1.4,1.4-1.4c1.6,0,3.1,0,4.7,0c0.8,0,1.2,0.2,1.2,1.1
			C31.7,22,31.7,24.4,31.7,26.8z"/>
		<path class="st2" d="M33.9,16c0-0.5,0-1,0-1.6c0,0,0.1,0,0.1,0c0.4,1.2,1.5,1.3,2.5,1.6c5.7,2,9.6,5.7,11.5,11.4
			c0.3,1,0.4,2.2,1.5,2.8c-0.5,0-1,0-1.5,0c-0.6-0.2-1.3,0-1.9-0.1c-0.4-0.2-0.5-0.7-0.6-1.1c-1.6-5.5-5.2-8.9-10.7-10.5
			c-0.3-0.1-0.7-0.1-0.8-0.4C33.9,17.4,34.1,16.7,33.9,16z"/>
		<path class="st3" d="M24.6,39.4c0-2.9,0-5.9,0-8.8c0.2,0,0.4,0.1,0.6,0.3c2.7,2.8,5.4,5.5,8,8.3c0.1,0.1,0.1,0.3,0.2,0.5
			c-2.9,0-5.7,0-8.6,0C24.8,39.5,24.7,39.5,24.6,39.4z"/>
		<path class="st4" d="M49.5,30.3c-0.9-0.1-1.2-0.6-1.5-1.5c-1.7-6.4-5.8-10.5-12-12.5c-0.1,0-0.2-0.1-0.3-0.1
			c-1.1,0-1.7-0.6-1.8-1.7c0.2-0.7,0.8-0.4,1.3-0.4c2.8,0.7,5.4,1.7,7.6,3.5c3.7,2.9,6.1,6.6,7.2,11.1c0,0.2,0.1,0.4,0.2,0.5
			C50.3,29.8,50.1,30.2,49.5,30.3z"/>
		<path class="st5" d="M50.2,29.2c-0.5-0.3-0.5-0.9-0.7-1.3c-1.3-4.5-3.9-8-7.7-10.7c-1.6-1.1-3.4-1.9-5.3-2.5
			c-0.4-0.1-1-0.1-1.2-0.6c1.8,0,3.5,0,5.3,0c4.3,2.1,7.5,5.4,9.7,9.7C50.2,25.6,50.2,27.4,50.2,29.2z"/>
		<path class="st6" d="M33.9,16c0.4,0.7,0.1,1.5,0.2,2.2c0.2,0.2,0.3,0.5,0.3,0.7c-0.2,1.1,0.5,1.5,1.4,1.9c3.6,1.4,6.1,3.9,7.5,7.5
			c0.4,1,0.8,1.6,2,1.5c0.3,0,0.5,0.1,0.7,0.3c0.7,0.1,1.3-0.2,2,0.2c-1.8,0-3.7,0-5.5,0c-0.2-0.1-0.4-0.1-0.5-0.1
			c-0.8,0.1-1.2-0.2-1.4-0.9c-0.9-2.4-2.5-4.2-4.8-5.2c-1.2-0.6-1.9-1.2-1.8-2.5C33.9,19.7,33.9,17.9,33.9,16z"/>
		<path class="st7" d="M14.2,27c0.8-0.9,1.7-1.8,2.6-2.6c0.6-0.3,1,0.2,1.3,0.5c0.9,0.8,1.7,1.7,2.6,2.6c0.3,0.3,0.5,0.6,1,0.7
			c0.3-0.4,0.2-0.8,0.2-1.2c0-1.8,0-3.7,0-5.5c0-0.5-0.1-1,0.3-1.3c0.3,0.9,0.1,1.7,0.1,2.6c0,2.5,0,5.1,0.1,7.7
			c0,0.9-0.3,1.2-1.1,1.1c-0.8-0.1-1.6,0-2.4-0.1c-0.8-0.6-1.4-1.4-2-2.2C16.1,28.4,15.1,27.7,14.2,27z"/>
		<path class="st8" d="M50.2,23.7c-0.4,0-0.5-0.4-0.7-0.6c-2-3.7-4.8-6.5-8.5-8.5c-0.2-0.1-0.3-0.4-0.5-0.6c1.7,0,3.4,0,5.1,0
			c1.7,1.4,3.3,2.9,4.7,4.6C50.2,20.4,50.2,22,50.2,23.7z"/>
		<path class="st9" d="M32.8,44.2c-0.1-2.9-0.2-2.4,2.2-2.4c2.7,0,5.4,0,8.1,0c0.4,0,0.8-0.2,1.2,0.2c-0.4,0.4-0.9,0.3-1.4,0.3
			c-1.9,0-3.7,0-5.6,0c-0.3,0-0.7-0.1-1.1,0.2c1.3,1.6,2.9,2.8,4.2,4.3c-0.6,0.9-1.4,1.6-2.2,2.2c-0.3,0.2-0.5,0.1-0.7-0.1
			C35.9,47.3,34.3,45.9,32.8,44.2z"/>
		<path class="st10" d="M22.2,20.1c0,2.5,0,5-0.1,7.6c0,0.3,0.2,0.8-0.2,1c-0.4,0.1-0.7-0.2-1-0.5c-1-1-2.1-2.1-3.1-3.1
			c-0.3-0.3-0.6-0.7-1.1-0.7c1.5-1.5,2.9-2.9,4.3-4.4C21.5,19.6,21.9,19.4,22.2,20.1z"/>
		<path class="st11" d="M40.3,46.9c-1-0.3-1.4-1.2-2.1-1.8c-0.8-0.7-1.5-1.5-2.3-2.2c-0.2-0.2-0.4-0.4-0.3-0.5
			c0.1-0.3,0.4-0.2,0.7-0.2c2.7,0,5.4,0,8,0c0.5,0.3,0.3,0.7,0,1C42.9,44.3,41.7,45.7,40.3,46.9z"/>
		<path class="st12" d="M33.9,21.5c0.2,0.2,0.2,0.5,0.2,0.7c0,0.6,0.2,0.9,0.8,1.1c2.9,1.2,5,3.3,6,6.3c0.3,0.9,1.2,0.2,1.5,0.7
			c-0.7,0-1.5,0-2.2,0c-1.3,0.1-2.2-0.4-2.7-1.6c-0.4-0.9-1.1-1.6-2-2c-1.2-0.6-1.8-1.4-1.7-2.7C33.9,23.2,33.9,22.4,33.9,21.5z"/>
		<path class="st13" d="M32.8,44.2c1.9,1.2,3.2,3,4.7,4.5c0.2,0.2,0.3,0.4,0.6,0.4c-0.7,0.8-1.3,1.6-2.2,2.2
			c-1.2-0.8-2.1-1.9-3.1-2.9C32.6,47,32.7,45.6,32.8,44.2z"/>
		<path class="st14" d="M33.9,24c-0.1,1.4,0.9,2,1.9,2.5c1.1,0.6,1.8,1.6,2.4,2.7c0.4,0.7,0.7,1.1,1.5,1c0.2,0,0.3,0.1,0.5,0.2
			c-1.8,0-3.5,0-5.3,0c-0.8,0-1.1-0.3-1.1-1.1C33.9,27.5,33.9,25.7,33.9,24z"/>
		<path class="st15" d="M14.2,27c1.1,0.1,1.9,1,2.6,1.7c0.8,0.9,1.6,1.6,2.2,2.7c-1.4,0.2-2.8,0-4.2,0c-0.9-0.8-1.7-1.6-2.5-2.4
			C12.8,28.3,13.3,27.5,14.2,27z"/>
		<path class="st16" d="M50.2,18.7c-0.3,0-0.5-0.2-0.7-0.4c-1-1.3-2.2-2.5-3.5-3.5c-0.2-0.2-0.4-0.4-0.4-0.7c1.3-0.4,2.7-0.1,4-0.2
			c0.5,0,0.7,0.4,0.8,0.8C50.4,16,50.5,17.3,50.2,18.7z"/>
		<path class="st17" d="M32.8,48.4c1.3,0.7,2.2,1.8,3.1,2.9c-0.7,0.7-1.3,1.3-2,2c-0.2,0.2-0.5,0.5-0.8,0.3
			c-0.3-0.2-0.3-0.5-0.3-0.8C32.8,51.4,32.8,49.9,32.8,48.4z"/>
		<path class="st18" d="M12.2,29c1.2,0.5,1.9,1.4,2.5,2.4c-1.1,0-2.3,0-3.4,0c-0.3,0-0.6,0-0.8-0.3c-0.2-0.3,0-0.5,0.2-0.8
			C11.2,29.9,11.7,29.5,12.2,29z"/>
		<path class="st19" d="M46,30.1c-1.5,0.2-2.5-0.1-3.1-1.9c-1.3-3.8-4.1-6.2-8-7.4c-0.6-0.2-0.9-0.5-0.8-1.2c0-0.5,0-1,0-1.4
			c2.5,0.2,4.5,1.4,6.3,2.8C43.4,23.3,45.3,26.4,46,30.1z"/>
	</g>
</g>
</svg>
